<?xml version="1.0" encoding="utf-8"?>
<!-- Generator: Adobe Illustrator 23.0.0, SVG Export Plug-In . SVG Version: 6.00 Build 0)  -->
<svg version="1.1" id="Layer_1" xmlns="http://www.w3.org/2000/svg" xmlns:xlink="http://www.w3.org/1999/xlink" x="0px" y="0px"
	 viewBox="0 0 500 100" style="enable-background:new 0 0 500 100;" xml:space="preserve">
<style type="text/css">
	.st0{fill:#28599D;}
	.st1{fill:#FFFFFF;}
	.st2{fill:#2FC7A0;}
	.st3{opacity:0.5;fill:#666666;}
</style>
<circle class="st0" cx="187.2" cy="50.2" r="33"/>
<circle class="st1" cx="187.2" cy="50.2" r="29.9"/>
<circle class="st2" cx="187.2" cy="50.2" r="25.9"/>
<path class="st1" d="M183.3,62.2c-0.3,0-0.7-0.1-0.9-0.4l-10.6-10.5c-0.5-0.5-0.5-1.3,0-1.9c0.5-0.5,1.3-0.5,1.9,0l9.6,9.6
	l20.2-20.2c0.5-0.5,1.3-0.5,1.9,0c0.5,0.5,0.5,1.3,0,1.9l-21.2,21.1C183.9,62.1,183.6,62.2,183.3,62.2z"/>
<circle class="st0" cx="287.2" cy="50.2" r="33"/>
<circle class="st1" cx="287.2" cy="50.2" r="29.9"/>
<path class="st3" d="M289.4,50l11.5-11.5c0.5-0.5,0.5-1.4,0-2c-0.5-0.5-1.4-0.5-2,0L287.4,48l-11.5-11.5c-0.5-0.5-1.4-0.5-2,0
	c-0.5,0.5-0.5,1.4,0,2L285.4,50l-11.5,11.5c-0.5,0.5-0.5,1.4,0,2c0.3,0.3,0.6,0.4,1,0.4c0.4,0,0.7-0.1,1-0.4L287.4,52l11.5,11.5
	c0.3,0.3,0.6,0.4,1,0.4c0.4,0,0.7-0.1,1-0.4c0.5-0.5,0.5-1.4,0-2L289.4,50z"/>
</svg>
