<?xml version="1.0" encoding="utf-8"?>
<!-- Generator: Adobe Illustrator 23.0.0, SVG Export Plug-In . SVG Version: 6.00 Build 0)  -->
<svg version="1.1" id="Layer_1" xmlns="http://www.w3.org/2000/svg" xmlns:xlink="http://www.w3.org/1999/xlink" x="0px" y="0px"
	 viewBox="0 0 24 24" style="enable-background:new 0 0 24 24;" xml:space="preserve">
<style type="text/css">
	.st0{fill:#0691CE;}
	.st1{fill:#FFFFFF;}
</style>
<circle class="st0" cx="12" cy="12" r="12"/>
<g>
	<path class="st1" d="M10.7,11.7h0.9c0.5,0,0.9-0.1,1.3-0.3s0.7-0.4,0.9-0.7c0.2-0.3,0.3-0.7,0.3-1.1c0-0.7-0.2-1.2-0.6-1.6
		s-0.9-0.6-1.7-0.6c-0.7,0-1.2,0.2-1.7,0.6C9.7,8.4,9.5,9,9.5,9.6H8.6c0-0.6,0.1-1.1,0.4-1.5C9.3,7.6,9.7,7.3,10.2,7s1-0.4,1.6-0.4
		c1,0,1.7,0.3,2.3,0.8s0.8,1.2,0.8,2.2c0,0.5-0.2,1-0.5,1.4c-0.3,0.4-0.8,0.8-1.3,1c0.7,0.2,1.2,0.5,1.5,1s0.5,1,0.5,1.6
		c0,0.9-0.3,1.6-0.9,2.2s-1.4,0.8-2.4,0.8c-0.6,0-1.2-0.1-1.7-0.4c-0.5-0.3-0.9-0.6-1.2-1.1c-0.3-0.5-0.4-1-0.4-1.6h0.9
		c0,0.7,0.2,1.2,0.7,1.7c0.5,0.4,1.1,0.6,1.8,0.6c0.8,0,1.3-0.2,1.8-0.6c0.4-0.4,0.6-1,0.6-1.7c0-0.7-0.2-1.3-0.7-1.6
		c-0.5-0.4-1.1-0.6-2-0.6h-0.9V11.7z"/>
</g>
</svg>
